<?xml version="1.0" encoding="utf-8"?>
<!-- Generator: Adobe Illustrator 16.0.0, SVG Export Plug-In . SVG Version: 6.00 Build 0)  -->
<!DOCTYPE svg PUBLIC "-//W3C//DTD SVG 1.1//EN" "http://www.w3.org/Graphics/SVG/1.1/DTD/svg11.dtd">
<svg version="1.1" id="Layer_1" xmlns="http://www.w3.org/2000/svg" xmlns:xlink="http://www.w3.org/1999/xlink" x="0px" y="0px"
	 width="640px" height="480px" viewBox="0 0 640 480" enable-background="new 0 0 640 480" xml:space="preserve">
<g>
	<path fill="#540691" d="M632.983,301.141c0-3.01-2.333-5.45-5.211-5.45H17.141c-2.878,0-5.21,2.44-5.21,5.45v4.361
		c0,3.011,2.333,5.451,5.21,5.451h610.632c2.878,0,5.211-2.44,5.211-5.451V301.141z"/>
	<path fill="#540691" d="M125.299,267.349c0-9.632-7.809-17.441-17.44-17.441H29.372c-9.633,0-17.441,7.81-17.441,17.441l0,0
		c0,9.634,7.809,17.44,17.441,17.44h78.487C117.49,284.789,125.299,276.982,125.299,267.349L125.299,267.349z"/>
	<path fill="#540691" d="M125.299,220.749c0-9.631-7.809-17.441-17.44-17.441H29.372c-9.633,0-17.441,7.81-17.441,17.441l0,0
		c0,9.634,7.809,17.442,17.441,17.442h78.487C117.49,238.191,125.299,230.383,125.299,220.749L125.299,220.749z"/>
	<path fill="#540691" d="M252.016,267.349c0-9.632-7.809-17.441-17.441-17.441h-78.486c-9.633,0-17.442,7.81-17.442,17.441l0,0
		c0,9.634,7.809,17.44,17.442,17.44h78.486C244.207,284.789,252.016,276.982,252.016,267.349L252.016,267.349z"/>
	<path fill="#540691" d="M252.016,220.75c0-9.632-7.809-17.442-17.441-17.442h-78.486c-9.633,0-17.442,7.81-17.442,17.441l0,0
		c0,9.634,7.809,17.442,17.442,17.442h78.486C244.207,238.191,252.016,230.383,252.016,220.75L252.016,220.75z"/>
	<path fill="#540691" d="M252.016,174.603c0-9.633-7.809-17.442-17.441-17.442h-78.486c-9.633,0-17.442,7.809-17.442,17.442l0,0
		c0,9.632,7.809,17.441,17.442,17.441l78.486,0C244.207,192.044,252.016,184.235,252.016,174.603L252.016,174.603z"/>
	<path fill="#540691" d="M252.016,127.729c0-9.632-7.809-17.441-17.441-17.441h-78.486c-9.633,0-17.442,7.809-17.442,17.441l0,0
		c0,9.632,7.809,17.441,17.442,17.441h78.486C244.207,145.17,252.016,137.361,252.016,127.729L252.016,127.729z"/>
	<path fill="#540691" d="M252.016,80.673c0-9.633-7.809-17.441-17.441-17.441h-78.486c-9.633,0-17.442,7.809-17.442,17.441l0,0
		c0,9.632,7.809,17.441,17.442,17.441h78.486C244.207,98.115,252.016,90.306,252.016,80.673L252.016,80.673z"/>
	<path fill="#540691" d="M252.016,33.799c0-9.633-7.809-17.441-17.441-17.441h-78.486c-9.633,0-17.442,7.809-17.442,17.441l0,0
		c0,9.633,7.809,17.441,17.442,17.441h78.486C244.207,51.241,252.016,43.432,252.016,33.799L252.016,33.799z"/>
	<path fill="#540691" d="M125.299,174.603c0-9.633-7.809-17.442-17.44-17.442H29.372c-9.633,0-17.441,7.809-17.441,17.442l0,0
		c0,9.632,7.809,17.441,17.441,17.441h78.487C117.49,192.044,125.299,184.235,125.299,174.603L125.299,174.603z"/>
	<path fill="#540691" d="M378.732,267.349c0-9.632-7.81-17.441-17.441-17.441h-78.487c-9.631,0-17.441,7.81-17.441,17.441l0,0
		c0,9.634,7.81,17.44,17.441,17.44h78.487C370.923,284.789,378.732,276.982,378.732,267.349L378.732,267.349z"/>
	<path fill="#540691" d="M378.732,220.75c0-9.632-7.81-17.442-17.441-17.442h-78.487c-9.631,0-17.441,7.81-17.441,17.442l0,0
		c0,9.633,7.81,17.441,17.441,17.441h78.487C370.923,238.191,378.732,230.383,378.732,220.75L378.732,220.75z"/>
	<path fill="#540691" d="M378.732,174.603c0-9.633-7.81-17.442-17.441-17.442h-78.487c-9.631,0-17.441,7.809-17.441,17.442l0,0
		c0,9.632,7.81,17.441,17.441,17.441h78.487C370.923,192.044,378.732,184.235,378.732,174.603L378.732,174.603z"/>
	<path fill="#540691" d="M507.084,267.349c0-9.632-7.81-17.441-17.44-17.441h-78.487c-9.634,0-17.441,7.81-17.441,17.441l0,0
		c0,9.634,7.808,17.44,17.441,17.44h78.487C499.274,284.789,507.084,276.982,507.084,267.349L507.084,267.349z"/>
	<path fill="#540691" d="M507.084,220.75c0-9.632-7.81-17.442-17.44-17.442l-78.487,0c-9.634,0-17.441,7.81-17.441,17.442l0,0
		c0,9.633,7.808,17.441,17.441,17.441h78.487C499.274,238.191,507.084,230.383,507.084,220.75L507.084,220.75z"/>
	<path fill="#540691" d="M507.084,174.603c0-9.633-7.81-17.442-17.44-17.442h-78.487c-9.634,0-17.441,7.809-17.441,17.442l0,0
		c0,9.632,7.808,17.441,17.441,17.441h78.487C499.274,192.044,507.084,184.235,507.084,174.603L507.084,174.603z"/>
	<path fill="#540691" d="M507.084,127.729c0-9.632-7.81-17.441-17.44-17.441h-78.487c-9.634,0-17.441,7.809-17.441,17.441l0,0
		c0,9.632,7.808,17.441,17.441,17.441h78.487C499.274,145.17,507.084,137.361,507.084,127.729L507.084,127.729z"/>
	<path fill="#540691" d="M507.084,80.673c0-9.633-7.81-17.441-17.44-17.441h-78.487c-9.634,0-17.441,7.809-17.441,17.441l0,0
		c0,9.633,7.808,17.441,17.441,17.441h78.487C499.274,98.115,507.084,90.306,507.084,80.673L507.084,80.673z"/>
	<path fill="#540691" d="M632.983,267.349c0-9.632-7.811-17.441-17.441-17.441h-78.487c-9.632,0-17.441,7.81-17.441,17.441l0,0
		c0,9.634,7.81,17.44,17.441,17.44h78.487C625.173,284.789,632.983,276.982,632.983,267.349L632.983,267.349z"/>
	<path fill="#540691" d="M632.983,220.75c0-9.632-7.811-17.442-17.441-17.442h-78.487c-9.632,0-17.441,7.81-17.441,17.442l0,0
		c0,9.633,7.81,17.441,17.441,17.441h78.487C625.173,238.191,632.983,230.383,632.983,220.75L632.983,220.75z"/>
</g>
<rect x="14.295" y="324.663" fill="none" width="615.978" height="115.446"/>
<text transform="matrix(1 0 0 1 14.2954 382.9971)" fill="#540691" font-family="'Superclarendon-Regular'" font-size="75.7596">Hip Hop Radio</text>
<rect x="489.292" y="402.947" fill="none" width="140.98" height="59.304"/>
<text transform="matrix(1 0 0 1 489.293 455.9785)" fill="#540691" stroke="#540691" stroke-miterlimit="10" font-family="'Quicksand-Regular'" font-size="75.7596">96.1</text>
<circle fill="#540691" cx="441.186" cy="432.598" r="29.652"/>
<rect x="429.648" y="427.688" fill="none" width="26.094" height="16.605"/>
<text transform="matrix(1 0 0 1 429.6484 438.7695)" fill="#FFFFFF" stroke="#FFFFFF" stroke-miterlimit="10" font-family="'Quicksand-Regular'" font-size="15.8304">FM</text>
</svg>
